<svg xmlns="http://www.w3.org/2000/svg" viewBox="0 0 400 400" width="400" height="400">
  <defs>
    <radialGradient id="cb1" cx="48%" cy="42%" r="55%">
      <stop offset="0%" stop-color="#666"/>
      <stop offset="30%" stop-color="#4a4a4a"/>
      <stop offset="60%" stop-color="#333"/>
      <stop offset="100%" stop-color="#1a1a1a"/>
    </radialGradient>
    <radialGradient id="ch1" cx="45%" cy="38%" r="55%">
      <stop offset="0%" stop-color="#5a5a5a"/>
      <stop offset="40%" stop-color="#3a3a3a"/>
      <stop offset="100%" stop-color="#1a1a1a"/>
    </radialGradient>
    <linearGradient id="cc1" x1="50%" y1="100%" x2="50%" y2="0%">
      <stop offset="0%" stop-color="#444"/>
      <stop offset="50%" stop-color="#2a2a2a"/>
      <stop offset="100%" stop-color="#151515"/>
    </linearGradient>
    <linearGradient id="cw1" x1="0%" y1="0%" x2="100%" y2="100%">
      <stop offset="0%" stop-color="#555"/>
      <stop offset="35%" stop-color="#333"/>
      <stop offset="70%" stop-color="#1a1a1a"/>
      <stop offset="100%" stop-color="#0a0a0a"/>
    </linearGradient>
    <linearGradient id="ct1" x1="100%" y1="0%" x2="0%" y2="100%">
      <stop offset="0%" stop-color="#444"/>
      <stop offset="50%" stop-color="#222"/>
      <stop offset="100%" stop-color="#0a0a0a"/>
    </linearGradient>
    <radialGradient id="cm1" cx="50%" cy="50%" r="50%">
      <stop offset="0%" stop-color="#222"/>
      <stop offset="100%" stop-color="#0a0a0a"/>
    </radialGradient>
    <linearGradient id="cbk1" x1="0%" y1="0%" x2="100%" y2="50%">
      <stop offset="0%" stop-color="#aaa"/>
      <stop offset="50%" stop-color="#888"/>
      <stop offset="100%" stop-color="#666"/>
    </linearGradient>
  </defs>
  <rect width="400" height="400" fill="white"/>
  <rect x="55" y="330" width="290" height="9" rx="4.5" fill="#888" opacity="0.5"/>
  <ellipse cx="200" cy="345" rx="120" ry="8" fill="#ddd" opacity="0.3"/>
  <path d="M108,260 Q75,300 45,365 Q82,322 100,280Z" fill="url(#ct1)"/>
  <path d="M114,264 Q85,308 60,370 Q90,330 108,288Z" fill="url(#ct1)" opacity="0.85"/>
  <path d="M120,266 Q95,312 78,372 Q100,335 115,293Z" fill="url(#ct1)" opacity="0.7"/>
  <ellipse cx="195" cy="252" rx="62" ry="52" fill="url(#cb1)"/>
  <ellipse cx="205" cy="245" rx="35" ry="30" fill="#666" opacity="0.25"/>
  <path d="M140,220 Q118,242 110,288 Q128,274 145,260 Q158,248 165,232 Q167,222 160,214Z" fill="url(#cw1)"/>
  <path d="M130,232 Q124,252 118,272" stroke="#444" stroke-width="0.8" fill="none" opacity="0.5"/>
  <path d="M138,228 Q133,248 127,268" stroke="#444" stroke-width="0.8" fill="none" opacity="0.5"/>
  <path d="M146,224 Q142,244 136,262" stroke="#444" stroke-width="0.8" fill="none" opacity="0.5"/>
  <path d="M154,221 Q151,240 146,258" stroke="#444" stroke-width="0.8" fill="none" opacity="0.5"/>
  <circle cx="250" cy="198" r="34" fill="url(#ch1)"/>
  <path d="M242,168 Q248,128 258,118 Q255,135 252,148 Q258,132 265,125 Q260,145 253,165Z" fill="url(#cc1)"/>
  <path d="M260,190 Q270,185 278,188 Q280,198 270,205 Q262,200 258,195Z" fill="url(#cm1)"/>
  <circle cx="240" cy="200" r="12" fill="url(#cm1)" opacity="0.6"/>
  <circle cx="260" cy="192" r="5.5" fill="#222"/>
  <circle cx="260" cy="192" r="3.5" fill="#111"/>
  <circle cx="262" cy="190" r="1.5" fill="#555"/>
  <path d="M278,195 Q300,188 308,185 Q300,200 278,205Z" fill="url(#cbk1)"/>
  <line x1="278" y1="200" x2="305" y2="192" stroke="#bbb" stroke-width="0.5"/>
  <path d="M180,238 Q185,246 183,256" stroke="#555" stroke-width="0.5" fill="none" opacity="0.4"/>
  <path d="M190,234 Q195,242 193,252" stroke="#555" stroke-width="0.5" fill="none" opacity="0.4"/>
  <path d="M200,232 Q205,240 203,250" stroke="#555" stroke-width="0.5" fill="none" opacity="0.4"/>
  <path d="M210,234 Q215,242 213,252" stroke="#555" stroke-width="0.5" fill="none" opacity="0.4"/>
  <line x1="192" y1="300" x2="187" y2="332" stroke="#555" stroke-width="3.5" stroke-linecap="round"/>
  <line x1="187" y1="332" x2="174" y2="336" stroke="#555" stroke-width="2" stroke-linecap="round"/>
  <line x1="187" y1="332" x2="197" y2="338" stroke="#555" stroke-width="2" stroke-linecap="round"/>
  <line x1="187" y1="332" x2="185" y2="340" stroke="#555" stroke-width="2" stroke-linecap="round"/>
  <line x1="218" y1="300" x2="223" y2="332" stroke="#555" stroke-width="3.5" stroke-linecap="round"/>
  <line x1="223" y1="332" x2="210" y2="336" stroke="#555" stroke-width="2" stroke-linecap="round"/>
  <line x1="223" y1="332" x2="233" y2="338" stroke="#555" stroke-width="2" stroke-linecap="round"/>
  <line x1="223" y1="332" x2="221" y2="340" stroke="#555" stroke-width="2" stroke-linecap="round"/>
</svg>
