<svg xmlns="http://www.w3.org/2000/svg" viewBox="0 0 400 400" width="400" height="400">
  <defs>
    <radialGradient id="ks1" cx="48%" cy="42%" r="55%">
      <stop offset="0%" stop-color="#888"/>
      <stop offset="30%" stop-color="#666"/>
      <stop offset="60%" stop-color="#4a4a4a"/>
      <stop offset="100%" stop-color="#2a2a2a"/>
    </radialGradient>
    <radialGradient id="ksh1" cx="45%" cy="38%" r="55%">
      <stop offset="0%" stop-color="#999"/>
      <stop offset="40%" stop-color="#777"/>
      <stop offset="100%" stop-color="#555"/>
    </radialGradient>
    <linearGradient id="ksw1" x1="0%" y1="0%" x2="100%" y2="100%">
      <stop offset="0%" stop-color="#666"/>
      <stop offset="30%" stop-color="#444"/>
      <stop offset="60%" stop-color="#2a2a2a"/>
      <stop offset="100%" stop-color="#111"/>
    </linearGradient>
    <linearGradient id="kst1" x1="100%" y1="0%" x2="0%" y2="100%">
      <stop offset="0%" stop-color="#777"/>
      <stop offset="40%" stop-color="#4a4a4a"/>
      <stop offset="80%" stop-color="#2a2a2a"/>
      <stop offset="100%" stop-color="#111"/>
    </linearGradient>
    <radialGradient id="ksbl1" cx="50%" cy="40%" r="55%">
      <stop offset="0%" stop-color="#e0e0e0"/>
      <stop offset="40%" stop-color="#ccc"/>
      <stop offset="80%" stop-color="#aaa"/>
      <stop offset="100%" stop-color="#888"/>
    </radialGradient>
    <radialGradient id="ksc1" cx="50%" cy="50%" r="50%">
      <stop offset="0%" stop-color="#888"/>
      <stop offset="50%" stop-color="#666"/>
      <stop offset="100%" stop-color="#444"/>
    </radialGradient>
  </defs>
  <rect width="400" height="400" fill="white"/>
  <rect x="55" y="330" width="290" height="9" rx="4.5" fill="#888" opacity="0.5"/>
  <ellipse cx="200" cy="345" rx="120" ry="8" fill="#ddd" opacity="0.3"/>
  <path d="M112,260 Q82,300 55,360 Q85,325 105,282Z" fill="url(#kst1)"/>
  <path d="M118,264 Q90,308 68,365 Q95,330 112,288Z" fill="url(#kst1)" opacity="0.85"/>
  <path d="M95,310 Q88,318 80,330" stroke="#aaa" stroke-width="2" fill="none" opacity="0.4"/>
  <path d="M100,298 Q93,306 86,318" stroke="#aaa" stroke-width="2" fill="none" opacity="0.4"/>
  <ellipse cx="195" cy="250" rx="58" ry="50" fill="url(#ks1)"/>
  <ellipse cx="212" cy="262" rx="36" ry="36" fill="url(#ksbl1)"/>
  <circle cx="200" cy="255" r="2.5" fill="#888" opacity="0.5"/>
  <circle cx="212" cy="250" r="2" fill="#888" opacity="0.5"/>
  <circle cx="224" cy="255" r="2.5" fill="#888" opacity="0.5"/>
  <circle cx="205" cy="268" r="2" fill="#888" opacity="0.5"/>
  <circle cx="218" cy="265" r="2.5" fill="#888" opacity="0.5"/>
  <circle cx="210" cy="278" r="2" fill="#888" opacity="0.5"/>
  <circle cx="195" cy="272" r="2" fill="#888" opacity="0.5"/>
  <path d="M142,218 Q120,240 112,282 Q130,268 146,255 Q158,244 165,228 Q167,218 160,210Z" fill="url(#ksw1)"/>
  <circle cx="130" cy="248" r="2" fill="#888" opacity="0.4"/>
  <circle cx="138" cy="242" r="2" fill="#888" opacity="0.4"/>
  <circle cx="125" cy="258" r="2" fill="#888" opacity="0.4"/>
  <path d="M132,230 Q126,250 120,268" stroke="#555" stroke-width="0.7" fill="none" opacity="0.5"/>
  <path d="M140,226 Q135,246 129,264" stroke="#555" stroke-width="0.7" fill="none" opacity="0.5"/>
  <path d="M148,222 Q144,242 138,258" stroke="#555" stroke-width="0.7" fill="none" opacity="0.5"/>
  <circle cx="248" cy="195" r="32" fill="url(#ksh1)"/>
  <path d="M225,180 Q248,160 270,180 Q250,172 235,175Z" fill="url(#ksc1)"/>
  <path d="M255,195 Q260,205 258,218" stroke="#333" stroke-width="3" fill="none" stroke-linecap="round"/>
  <path d="M268,192 Q272,202 270,215" stroke="#333" stroke-width="2.5" fill="none" stroke-linecap="round"/>
  <path d="M258,188 Q265,190 268,195 Q263,198 258,196Z" fill="#ccc" opacity="0.5"/>
  <circle cx="258" cy="190" r="5" fill="#222"/>
  <circle cx="258" cy="190" r="3.2" fill="#111"/>
  <circle cx="260" cy="188" r="1.3" fill="#666"/>
  <path d="M278,192 Q292,186 296,190 Q292,196 278,200Z" fill="#555"/>
  <path d="M290,190 Q292,192 290,194" stroke="#333" stroke-width="1" fill="none"/>
  <line x1="192" y1="296" x2="187" y2="332" stroke="#666" stroke-width="3" stroke-linecap="round"/>
  <line x1="187" y1="332" x2="175" y2="335" stroke="#666" stroke-width="2" stroke-linecap="round"/>
  <line x1="187" y1="332" x2="197" y2="337" stroke="#666" stroke-width="2" stroke-linecap="round"/>
  <line x1="187" y1="332" x2="185" y2="339" stroke="#666" stroke-width="2" stroke-linecap="round"/>
  <line x1="215" y1="296" x2="220" y2="332" stroke="#666" stroke-width="3" stroke-linecap="round"/>
  <line x1="220" y1="332" x2="208" y2="335" stroke="#666" stroke-width="2" stroke-linecap="round"/>
  <line x1="220" y1="332" x2="230" y2="337" stroke="#666" stroke-width="2" stroke-linecap="round"/>
  <line x1="220" y1="332" x2="218" y2="339" stroke="#666" stroke-width="2" stroke-linecap="round"/>
</svg>
