<svg xmlns="http://www.w3.org/2000/svg" viewBox="0 0 400 400" width="400" height="400">
  <defs>
    <radialGradient id="mb1" cx="50%" cy="40%" r="55%">
      <stop offset="0%" stop-color="#999"/>
      <stop offset="35%" stop-color="#777"/>
      <stop offset="70%" stop-color="#555"/>
      <stop offset="100%" stop-color="#404040"/>
    </radialGradient>
    <radialGradient id="mh1" cx="45%" cy="40%" r="55%">
      <stop offset="0%" stop-color="#888"/>
      <stop offset="50%" stop-color="#666"/>
      <stop offset="100%" stop-color="#444"/>
    </radialGradient>
    <linearGradient id="mw1" x1="0%" y1="0%" x2="80%" y2="100%">
      <stop offset="0%" stop-color="#666"/>
      <stop offset="30%" stop-color="#444"/>
      <stop offset="60%" stop-color="#2a2a2a"/>
      <stop offset="100%" stop-color="#151515"/>
    </linearGradient>
    <linearGradient id="mt1" x1="100%" y1="0%" x2="0%" y2="100%">
      <stop offset="0%" stop-color="#555"/>
      <stop offset="40%" stop-color="#333"/>
      <stop offset="100%" stop-color="#111"/>
    </linearGradient>
    <radialGradient id="mbl1" cx="50%" cy="40%" r="55%">
      <stop offset="0%" stop-color="#f0f0f0"/>
      <stop offset="40%" stop-color="#ddd"/>
      <stop offset="80%" stop-color="#bbb"/>
      <stop offset="100%" stop-color="#999"/>
    </radialGradient>
  </defs>
  <rect width="400" height="400" fill="white"/>
  <rect x="50" y="330" width="300" height="8" rx="4" fill="#777" opacity="0.5"/>
  <path d="M110,255 Q70,300 40,365 Q80,330 100,285Z" fill="url(#mt1)"/>
  <path d="M115,258 Q80,310 55,370 Q88,335 108,290Z" fill="url(#mt1)" opacity="0.85"/>
  <path d="M120,260 Q92,315 72,372 Q98,338 115,293Z" fill="url(#mt1)" opacity="0.7"/>
  <path d="M85,320 Q78,335 65,355 Q82,340 90,325Z" fill="#ccc" opacity="0.5"/>
  <ellipse cx="190" cy="248" rx="60" ry="50" fill="url(#mb1)"/>
  <ellipse cx="210" cy="262" rx="38" ry="38" fill="url(#mbl1)"/>
  <path d="M138,215 Q115,240 108,285 Q125,272 142,258 Q155,245 162,230 Q165,220 158,212Z" fill="url(#mw1)"/>
  <path d="M122,240 Q128,245 135,248" stroke="#ccc" stroke-width="2.5" fill="none" opacity="0.7"/>
  <path d="M118,252 Q125,257 133,260" stroke="#ccc" stroke-width="2.5" fill="none" opacity="0.7"/>
  <path d="M130,228 Q124,245 120,265" stroke="#555" stroke-width="0.7" fill="none" opacity="0.5"/>
  <path d="M138,224 Q133,242 128,260" stroke="#555" stroke-width="0.7" fill="none" opacity="0.5"/>
  <path d="M146,220 Q142,238 137,256" stroke="#555" stroke-width="0.7" fill="none" opacity="0.5"/>
  <path d="M153,218 Q150,234 145,252" stroke="#555" stroke-width="0.7" fill="none" opacity="0.5"/>
  <circle cx="245" cy="195" r="32" fill="url(#mh1)"/>
  <line x1="225" y1="190" x2="270" y2="185" stroke="#333" stroke-width="3" stroke-linecap="round"/>
  <circle cx="257" cy="188" r="5.5" fill="#222"/>
  <circle cx="257" cy="188" r="3.5" fill="#111"/>
  <circle cx="259" cy="186" r="1.5" fill="#777"/>
  <path d="M275,190 Q295,185 300,183 Q295,190 275,196Z" fill="#444"/>
  <line x1="275" y1="193" x2="298" y2="186" stroke="#666" stroke-width="0.4"/>
  <path d="M215,250 Q217,258 216,265" stroke="#999" stroke-width="0.8" fill="none" opacity="0.5"/>
  <path d="M225,248 Q227,256 226,263" stroke="#999" stroke-width="0.8" fill="none" opacity="0.5"/>
  <path d="M205,252 Q207,260 206,267" stroke="#999" stroke-width="0.8" fill="none" opacity="0.5"/>
  <line x1="190" y1="295" x2="185" y2="332" stroke="#666" stroke-width="3" stroke-linecap="round"/>
  <line x1="185" y1="332" x2="172" y2="335" stroke="#666" stroke-width="2" stroke-linecap="round"/>
  <line x1="185" y1="332" x2="195" y2="337" stroke="#666" stroke-width="2" stroke-linecap="round"/>
  <line x1="185" y1="332" x2="183" y2="338" stroke="#666" stroke-width="2" stroke-linecap="round"/>
  <line x1="215" y1="295" x2="220" y2="332" stroke="#666" stroke-width="3" stroke-linecap="round"/>
  <line x1="220" y1="332" x2="208" y2="335" stroke="#666" stroke-width="2" stroke-linecap="round"/>
  <line x1="220" y1="332" x2="230" y2="337" stroke="#666" stroke-width="2" stroke-linecap="round"/>
  <line x1="220" y1="332" x2="218" y2="338" stroke="#666" stroke-width="2" stroke-linecap="round"/>
</svg>
